<svg width="100" height="100" viewBox="0 0 100 100" fill="none" xmlns="http://www.w3.org/2000/svg">
<g clip-path="url(#clip0_442_2)">
<rect width="100" height="100" rx="50" fill="#8C7F44"/>
<path d="M39.752 67.864C35.576 67.864 32.12 67.096 29.384 65.56C26.696 63.976 24.632 61.936 23.192 59.44C21.8 56.944 20.936 54.328 20.6 51.592H27.584C28.112 54.664 29.432 57.16 31.544 59.08C33.656 61 36.392 62.008 39.752 62.104C41.864 62.104 43.784 61.768 45.512 61.096C47.288 60.376 48.704 59.392 49.76 58.144C50.816 56.848 51.32 55.336 51.272 53.608C51.272 51.64 50.744 50.104 49.688 49C48.632 47.896 47.24 47.032 45.512 46.408C43.832 45.784 41.96 45.256 39.896 44.824C37.832 44.344 35.768 43.816 33.704 43.24C31.64 42.664 29.744 41.872 28.016 40.864C26.336 39.856 24.968 38.488 23.912 36.76C22.856 34.984 22.328 32.68 22.328 29.848C22.328 27.4 22.928 25.096 24.128 22.936C25.376 20.776 27.272 19.048 29.816 17.752C32.36 16.408 35.6 15.736 39.536 15.736C42.272 15.736 44.696 16.168 46.808 17.032C48.968 17.896 50.792 19.048 52.28 20.488C53.816 21.88 54.968 23.416 55.736 25.096C56.552 26.776 57.008 28.432 57.104 30.064H50.408C50.168 28.624 49.616 27.256 48.752 25.96C47.888 24.664 46.64 23.608 45.008 22.792C43.424 21.928 41.432 21.496 39.032 21.496C37.256 21.496 35.576 21.808 33.992 22.432C32.408 23.056 31.112 23.968 30.104 25.168C29.144 26.368 28.664 27.808 28.664 29.488C28.664 31.408 29.192 32.92 30.248 34.024C31.304 35.128 32.672 35.992 34.352 36.616C36.08 37.24 37.976 37.792 40.04 38.272C42.104 38.752 44.168 39.28 46.232 39.856C48.296 40.432 50.168 41.224 51.848 42.232C53.576 43.24 54.968 44.608 56.024 46.336C57.08 48.016 57.608 50.224 57.608 52.96C57.608 56.224 56.84 58.984 55.304 61.24C53.768 63.448 51.656 65.104 48.968 66.208C46.328 67.312 43.256 67.864 39.752 67.864Z" fill="white"/>
<path d="M72.625 51C72.1094 49.4219 71.4297 48.0078 70.5859 46.7578C69.7578 45.4922 68.7656 44.4141 67.6094 43.5234C66.4688 42.6328 65.1719 41.9531 63.7188 41.4844C62.2656 41.0156 60.6719 40.7812 58.9375 40.7812C56.0938 40.7812 53.5078 41.5156 51.1797 42.9844C48.8516 44.4531 47 46.6172 45.625 49.4766C44.25 52.3359 43.5625 55.8437 43.5625 60C43.5625 64.1562 44.2578 67.6641 45.6484 70.5234C47.0391 73.3828 48.9219 75.5469 51.2969 77.0156C53.6719 78.4844 56.3438 79.2187 59.3125 79.2187C62.0625 79.2187 64.4844 78.6328 66.5781 77.4609C68.6875 76.2734 70.3281 74.6016 71.5 72.4453C72.6875 70.2734 73.2813 67.7187 73.2813 64.7812L75.0625 65.1562H60.625V60H78.9063V65.1562C78.9063 69.1094 78.0625 72.5469 76.375 75.4687C74.7031 78.3906 72.3906 80.6562 69.4375 82.2656C66.5 83.8594 63.125 84.6562 59.3125 84.6562C55.0625 84.6562 51.3281 83.6562 48.1094 81.6563C44.9063 79.6562 42.4063 76.8125 40.6094 73.125C38.8281 69.4375 37.9375 65.0625 37.9375 60C37.9375 56.2031 38.4453 52.7891 39.4609 49.7578C40.4922 46.7109 41.9453 44.1172 43.8203 41.9766C45.6953 39.8359 47.9141 38.1953 50.4766 37.0547C53.0391 35.9141 55.8594 35.3437 58.9375 35.3437C61.4688 35.3437 63.8281 35.7266 66.0156 36.4922C68.2188 37.2422 70.1797 38.3125 71.8984 39.7031C73.6328 41.0781 75.0781 42.7266 76.2344 44.6484C77.3906 46.5547 78.1875 48.6719 78.625 51H72.625Z" fill="white"/>
</g>
<defs>
<clipPath id="clip0_442_2">
<rect width="100" height="100" rx="50" fill="white"/>
</clipPath>
</defs>
</svg>
